<svg width="207" height="36" viewBox="0 0 207 36" fill="none" xmlns="http://www.w3.org/2000/svg">
<path d="M135.889 25.1606C134.506 25.1606 133.258 24.852 132.145 24.2347C131.031 23.6039 130.152 22.7451 129.508 21.658C128.877 20.571 128.562 19.3566 128.562 18.0146C128.562 16.6726 128.877 15.4581 129.508 14.3711C130.152 13.2841 131.031 12.4319 132.145 11.8146C133.258 11.1839 134.506 10.8685 135.889 10.8685C137.271 10.8685 138.519 11.1772 139.633 11.7945C140.747 12.4118 141.619 13.264 142.25 14.351C142.894 15.438 143.216 16.6592 143.216 18.0146C143.216 19.37 142.894 20.5912 142.25 21.6782C141.619 22.7652 140.747 23.6173 139.633 24.2347C138.519 24.852 137.271 25.1606 135.889 25.1606ZM135.889 24.2145C137.07 24.2145 138.137 23.9461 139.089 23.4093C140.042 22.8725 140.794 22.1345 141.344 21.1951C141.894 20.2423 142.169 19.1821 142.169 18.0146C142.169 16.8471 141.894 15.7936 141.344 14.8542C140.794 13.9014 140.042 13.1566 139.089 12.6198C138.137 12.083 137.07 11.8146 135.889 11.8146C134.708 11.8146 133.634 12.083 132.668 12.6198C131.715 13.1566 130.964 13.9014 130.413 14.8542C129.863 15.7936 129.588 16.8471 129.588 18.0146C129.588 19.1821 129.863 20.2423 130.413 21.1951C130.964 22.1345 131.715 22.8725 132.668 23.4093C133.634 23.9461 134.708 24.2145 135.889 24.2145Z" fill="white"/>
<path d="M158.251 10.9692V25.06H157.405L147.803 12.8211V25.06H146.777V10.9692H147.642L157.224 23.208V10.9692H158.251Z" fill="white"/>
<path d="M163.171 10.9692H164.198V24.134H172.31V25.06H163.171V10.9692Z" fill="white"/>
<path d="M174.946 10.9692H175.973V25.06H174.946V10.9692Z" fill="white"/>
<path d="M192.357 10.9692V25.06H191.512L181.91 12.8211V25.06H180.883V10.9692H181.749L191.33 23.208V10.9692H192.357Z" fill="white"/>
<path d="M207.001 24.134V25.06H197.278V10.9692H206.699V11.8951H198.304V17.4509H205.813V18.3568H198.304V24.134H207.001Z" fill="white"/>
<path fill-rule="evenodd" clip-rule="evenodd" d="M20.0282 18.1773H23.3465V4.54339L32.3071 12.9037V25.2444L38.6946 32.5444C37.9915 32.3822 37.0515 32.1879 35.9723 31.9807C32.0304 31.2238 26.2326 30.2938 23.3465 30.1208V26.3428H20.0282V30.1208C17.1421 30.2938 11.3443 31.2238 7.40236 31.9807C6.32325 32.1879 5.38321 32.3822 4.68006 32.5444L11.0676 25.2444V12.9037L20.0282 4.54339V18.1773ZM9.38999 24.6141V12.1745L21.6689 0.718271V0.683838L21.6874 0.701055L21.7058 0.683839V0.718271L33.9847 12.1745V24.6141L43.3747 35.3454L38.3176 34.179C35.0923 33.4351 26.7926 32.0079 23.2461 31.7954L21.6874 31.702L20.1286 31.7954C16.5821 32.0079 8.28245 33.4351 5.05708 34.179L0 35.3454L9.38999 24.6141Z" fill="white"/>
<path d="M17.8917 9.4292V20.341H25.4824V9.4292L30.2452 14.0147L30.621 24.148C29.5349 24.1541 28.12 24.335 27.6067 24.4633C28.3838 24.5604 29.412 24.872 30.2452 25.1649V25.9972L33.8012 29.83C31.1959 29.2434 28.4022 28.8507 25.4824 28.6858V24.2859H17.8917V28.6967C14.9508 28.873 12.1397 29.2804 9.52246 29.8844L13.1289 25.9972V16.5439C13.8103 15.8397 14.7276 15.1586 15.3915 14.879C14.4879 14.7887 13.3518 15.4462 12.7605 15.8187L13.1289 14.0147L17.8917 9.4292Z" fill="white"/>
<path fill-rule="evenodd" clip-rule="evenodd" d="M127.778 10.9693H118.293V25.0601H128.036C127.201 24.1649 126.521 23.1242 126.036 21.9803H122.239V19.4037H125.316C125.243 18.9033 125.205 18.3915 125.205 17.8709C125.205 17.3802 125.239 16.8973 125.304 16.4245H122.239V14.0492H125.919C126.361 12.914 126.994 11.8742 127.778 10.9693ZM84.8925 25.3419C83.7518 25.3419 82.6447 25.201 81.5711 24.9192C80.4975 24.6374 79.6252 24.2616 78.9543 23.7919L80.2627 20.853C80.8934 21.269 81.6248 21.6045 82.4568 21.8595C83.2888 22.1145 84.1075 22.2419 84.9126 22.2419C86.4425 22.2419 87.2074 21.8595 87.2074 21.0946C87.2074 20.692 86.986 20.3967 86.5432 20.2088C86.1137 20.0076 85.4159 19.7995 84.4497 19.5848C83.3895 19.3567 82.5038 19.1151 81.7925 18.8602C81.0813 18.5918 80.4707 18.169 79.9607 17.592C79.4508 17.0149 79.1958 16.2366 79.1958 15.2569C79.1958 14.3981 79.4307 13.6264 79.9003 12.942C80.37 12.2442 81.0679 11.694 81.9938 11.2914C82.9332 10.8888 84.0806 10.6875 85.436 10.6875C86.362 10.6875 87.2745 10.7949 88.1737 11.0096C89.0728 11.2109 89.8646 11.5128 90.549 11.9154L89.321 14.8745C87.9791 14.1498 86.6773 13.7875 85.4159 13.7875C84.6241 13.7875 84.0471 13.9083 83.6847 14.1498C83.3224 14.3779 83.1412 14.6799 83.1412 15.0556C83.1412 15.4314 83.3559 15.7132 83.7854 15.9011C84.2148 16.089 84.9059 16.2836 85.8587 16.4849C86.9323 16.713 87.818 16.9613 88.5159 17.2297C89.2271 17.4846 89.8377 17.9006 90.3477 18.4777C90.871 19.0413 91.1327 19.813 91.1327 20.7926C91.1327 21.6381 90.8979 22.403 90.4282 23.0874C89.9585 23.7718 89.2539 24.322 88.3146 24.738C87.3752 25.1406 86.2345 25.3419 84.8925 25.3419ZM61.3046 12.7307V10.9693H57.3189V16.2634H51.8839V10.9693H45.7979L47.8982 12.7307V14.492V18.0147V21.5374V23.2988L45.9811 25.0601H51.8839V19.5647H57.3189V25.0601H61.3046V18.0147V14.492V12.7307ZM66.4913 25.0601L67.5984 22.3225H73.5568L74.664 25.0601H78.8107L75.6906 18.0147L74.1305 14.492L73.3505 12.7307L74.4876 10.9693H68.6452L62.4251 25.0601H66.4913ZM70.5776 14.8745L72.3893 19.3835H68.766L70.5776 14.8745ZM94.6043 24.9192C95.6779 25.201 96.785 25.3419 97.9257 25.3419C99.2677 25.3419 100.408 25.1406 101.348 24.738C102.287 24.322 102.992 23.7718 103.461 23.0874C103.931 22.403 104.166 21.6381 104.166 20.7926C104.166 19.813 103.904 19.0413 103.381 18.4777C102.871 17.9006 102.26 17.4846 101.549 17.2297C100.851 16.9613 99.9655 16.713 98.8919 16.4849C97.9391 16.2836 97.248 16.089 96.8186 15.9011C96.3891 15.7132 96.1744 15.4314 96.1744 15.0556C96.1744 14.6799 96.3556 14.3779 96.7179 14.1498C97.0803 13.9083 97.6573 13.7875 98.4491 13.7875C99.7105 13.7875 101.012 14.1498 102.354 14.8745L103.582 11.9154C102.898 11.5128 102.106 11.2109 101.207 11.0096C100.308 10.7949 99.3952 10.6875 98.4692 10.6875C97.1138 10.6875 95.9664 10.8888 95.027 11.2914C94.1011 11.694 93.4032 12.2442 92.9335 12.942C92.4638 13.6264 92.229 14.3981 92.229 15.2569C92.229 16.2366 92.484 17.0149 92.9939 17.592C93.5039 18.169 94.1145 18.5918 94.8257 18.8602C95.537 19.1151 96.4227 19.3567 97.4829 19.5848C98.4491 19.7995 99.1469 20.0076 99.5763 20.2088C100.019 20.3967 100.241 20.692 100.241 21.0946C100.241 21.8595 99.4757 22.2419 97.9458 22.2419C97.1407 22.2419 96.322 22.1145 95.49 21.8595C94.658 21.6045 93.9266 21.269 93.2959 20.853L91.9874 23.7919C92.6584 24.2616 93.5307 24.6374 94.6043 24.9192ZM106.007 10.9693H111.91L109.993 12.3356V13.7019V16.4345V21.8997H116.716V25.0601H106.007V10.9693Z" fill="white"/>
</svg>
